<svg width="39" height="42" viewBox="0 0 39 42" fill="none" xmlns="http://www.w3.org/2000/svg">
<path d="M10.2857 7.125C10.2857 5.94961 9.32812 5 8.14286 5C6.95759 5 6 5.94961 6 7.125V9.25V29.4375V36.875C6 38.0504 6.95759 39 8.14286 39C9.32812 39 10.2857 38.0504 10.2857 36.875V28.375L14.5915 27.3059C17.3438 26.6219 20.2567 26.9406 22.7946 28.1957C25.7545 29.6633 29.1897 29.8426 32.2835 28.6871L34.6071 27.8238C35.4442 27.5117 36 26.7215 36 25.8316V9.38945C36 7.86211 34.3795 6.86602 33 7.55L32.3571 7.86875C29.2567 9.40938 25.6071 9.40938 22.5067 7.86875C20.1562 6.7 17.4576 6.40781 14.9062 7.03867L10.2857 8.1875V7.125Z" fill="#7F69ED"/>
<path d="M22.8896 12.3945V23H20.6777V14.4893H20.6191L18.1875 16.0127V14.0645L20.8096 12.3945H22.8896Z" fill="white"/>
</svg>
