<svg width="30" height="34" viewBox="0 0 30 34" fill="none" xmlns="http://www.w3.org/2000/svg">
<path d="M4.28571 2.125C4.28571 0.949609 3.32812 0 2.14286 0C0.957589 0 0 0.949609 0 2.125V4.25V24.4375V31.875C0 33.0504 0.957589 34 2.14286 34C3.32812 34 4.28571 33.0504 4.28571 31.875V23.375L8.59152 22.3059C11.3438 21.6219 14.2567 21.9406 16.7946 23.1957C19.7545 24.6633 23.1897 24.8426 26.2835 23.6871L28.6071 22.8238C29.4442 22.5117 30 21.7215 30 20.8316V4.38945C30 2.86211 28.3795 1.86602 27 2.55L26.3571 2.86875C23.2567 4.40938 19.6071 4.40938 16.5067 2.86875C14.1562 1.7 11.4576 1.40781 8.90625 2.03867L4.28571 3.1875V2.125Z" fill="#7F69ED"/>
<path d="M11.2573 18L11.2427 16.4033L15.0513 12.9023C16.0474 11.9502 16.5747 11.3643 16.5747 10.5293C16.5747 9.5918 15.8569 9.00586 14.8901 9.00586C13.894 9.00586 13.2495 9.63574 13.2495 10.6465H11.1548C11.1401 8.56641 12.6782 7.24805 14.9194 7.24805C17.1899 7.24805 18.6987 8.53711 18.6987 10.3828C18.6987 11.584 18.1128 12.5801 15.9302 14.5576L14.3188 16.125V16.1836H18.8452V18H11.2573Z" fill="white"/>
</svg>
